<?xml version="1.0"?>
<svg version="1.1" xmlns="http://www.w3.org/2000/svg" width="340" height="77" style=""><path fill="#2bc40c" d="M35.56,48.22q1.56-0.76,2.56-2.52q1-1.68,1-3.6q0-3.44-2.32-5.56q-2.32-2.08-5.84-2.08l-11.24,0l-0.48,0l-2.04,0l0,28.04l2.04,0l0.48,0l11.24,0q3.52,0,5.84-2.08q2.32-2.12,2.32-5.56q0-1.88-0.98-3.66t-2.58-2.98z M19.72,36.5l11.24,0q2.4,0,3.96,1.64q1.68,1.76,1.68,3.96q0,1.8-1.32,3.32q-1.24,1.36-3.28,1.8l-1.04,0l-11.24,0l0-10.72z M30.96,60.46l-11.24,0l0-10.72l11.24,0l1.04,0q2.04,0.44,3.28,1.8q1.32,1.52,1.32,3.32q0,2.16-1.68,3.92q-1.6,1.68-3.96,1.68z M67.6336,34.46l-2.52,0l0,17.08q0,3.68-2.56,6.16q-2.52,2.4-6,2.4q-3.8,0-6.12-2.4q-2.36-2.44-2.36-6.16l0-17.08l-2.56,0l0,17.08q0,4.56,3.12,7.76q3.16,3.28,7.92,3.28q4.44,0,7.8-3.28q3.28-3.2,3.28-7.76l0-17.08z M94.5072,62.5l0-2.52l-7.12,0q-4.96,0-8.32-3.36t-3.36-8.32q0-4.56,3.36-7.84t8.32-3.28l7.12,0l0-2.6l-7.12,0q-6.04,0-10.12,4q-4.08,3.96-4.08,9.72q0,6.12,4.08,10.12q4,4.08,10.12,4.08l7.12,0z M121.9008,34.42l-2.52,0l0,12.8l-16.88,0l0-12.8l-2.52,0l0,28.08l2.52,0l0-12.76l16.88,0l0,12.76l2.52,0l0-28.08z M138.6944,34.34q-4.48,0-7.52,3.24q-3,3.2-3,7.8l0,17.12l2.52,0l0-12.56l16.08,0l0,12.56l2.52,0l0-17.12q0-4.6-3-7.8q-3.12-3.24-7.6-3.24z M146.7744,47.46l-16.08,0l0-2.08q0-3.44,2.32-5.96q2.36-2.56,5.68-2.56t5.76,2.56q2.32,2.52,2.32,5.96l0,2.08z M167.568,48.46l3,0q3.04,0,5.04-2t2-5.04q0-2.68-2-4.8q-2.12-2.2-5.04-2.2l-12.52,0l-2.48,0l0,28.08l2.48,0l0-14.04l6.52,0l8.52,14.04l3,0z M158.048,45.98l0-9.04l12.52,0q1.84,0,3.24,1.32q1.32,1.32,1.32,3.16q0,1.92-1.32,3.24q-1.4,1.32-3.24,1.32l-12.52,0z M185.8016,54.82q0-1.92,1.36-3.48q1.36-1.64,3.28-1.64l0.52,0l7.48,0l0-2.48l-7.48,0l-0.52,0q-2.04-0.4-3.34-1.76t-1.3-3.24q0-2.36,1.38-3.74t3.78-1.38l13.6,0l0-2.52l-13.6,0q-3.08,0-5.36,2.28q-2.28,2.2-2.28,5.36q0,2,0.76,3.64t2.24,2.36q-1.48,1.08-2.24,2.84t-0.76,3.76q0,3.12,2.28,5.32q2.32,2.32,5.36,2.32l13.6,0l0-2.64l-13.6,0q-2.4,0-3.78-1.36t-1.38-3.64z M216.0752,37.42l15.08,0l0-3.04l-15.08,0q-2.96,0-4.96,2.32q-2.04,2.36-2.04,5.72q0,3.04,2.04,5.28q2,2.28,4.96,2.28l4,0l4.08,0q1.8,0,3.2,1.52q1.32,1.6,1.32,3.48q0,2.24-1.3,3.64t-3.22,1.4l-15.08,0l0,2.48l15.08,0q3,0,5-2.08t2-5.44q0-3.04-2-5.28q-2.04-2.24-5-2.24l-4.08,0l-4,0q-1.84,0-3.16-1.6q-1.36-1.48-1.36-3.44q0-2.24,1.3-3.62t3.22-1.38z M257.3488,34.5l-21.68,0l0,2.44l9.84,0l0,25.64l2.48,0l0-25.64l9.36,0l0-2.44z"/><path fill="#f79307" d="M293.096,48.46l3,0q3.04,0,5.04-2t2-5.04q0-2.68-2-4.8q-2.12-2.2-5.04-2.2l-12.52,0l-2.48,0l0,28.08l2.48,0l0-14.04l6.52,0l8.52,14.04l3,0z M283.576,45.98l0-9.04l12.52,0q1.84,0,3.24,1.32q1.32,1.32,1.32,3.16q0,1.92-1.32,3.24q-1.4,1.32-3.24,1.32l-12.52,0z M320.0496,34.5q-4.52,0-7.76,3.24q-3.28,3.28-3.28,7.8l0,6.04q0,4.44,3.28,7.72t7.76,3.28q4.52,0,7.8-3.28q3.24-3.24,3.24-7.72l0-6.04q0-4.56-3.24-7.8t-7.8-3.24z M328.6096,45.54l0,6.04q0,3.64-2.56,6.12q-2.52,2.4-6,2.4t-5.96-2.4q-2.56-2.48-2.56-6.12l0-6.04q0-3.36,2.56-6q2.56-2.56,5.96-2.56q3.36,0,6,2.56q2.56,2.64,2.56,6z"/></svg>
