<?xml version="1.0"?>
<svg version="1.1" xmlns="http://www.w3.org/2000/svg" width="340" height="77" style=""><path fill="#217a0f" d="M25.6,34.3l4.2,0c5.2,0,8.8,2.2,8.8,6.92c0,3.48-1.64,5.6-4.8,6.6c3.76,1.08,5.72,3.32,5.72,6.4c0,5.88-3.92,8.28-10.4,8.28l-12.72,0l0-3.4l3-1.2l0-18.8l-3-1.2l0-3.4z M25.6,45.82l2.32,0c2.92,0,4.48-1.24,4.48-3.72c0-2.08-1.48-3-3.4-3l-3.4,0l0,6.72z M25.6,57.7l3.32,0c2.8,0,4.28-1.28,4.28-3.48c0-2.92-1.68-4.2-5.28-4.2l-2.32,0l0,7.68z M44.7004,44.3l0-3.2l9.2-0.2l0,13.8c0,2.2,0.64,3.2,2.44,3.2c2.6,0,4.52-2.16,4.52-2.16l0-10.44l-3.2-1l0-3.2l9.2-0.2l0,17.4l3.2,0.8l0,3.12l-8.44,0.28l-0.4-2.8s-3.2,3.2-7,3.2c-4,0-6.32-2.68-6.32-7.16l0-10.44z M92.0408,55.98l2,3.52c-1,0.88-4.12,3.4-8.6,3.4c-6.6,0-10.4-4.08-10.4-10.88c0-7.12,4-11.52,11-11.52c3.44,0,7,1.4,7,1.4l-0.2,6.56l-3.6,0l-0.56-2.84s-1.16-0.32-2.76-0.32c-2.88,0-4.68,1.92-4.68,5.92c0,4.36,1.68,6.88,5,6.88c2.8,0,4.56-1.4,5.8-2.12z M107.4212,31.5l0,11.72c1.16-0.96,3.76-2.72,6.72-2.72c4.08,0,6.28,2.72,6.28,7.2l0,10.6l2.8,1l0,3.2l-10.88,0l0-3.2l2.08-0.96l0-9.68c0-2-0.8-3.2-2.64-3.2c-2.24,0-4.36,2.12-4.36,2.12l0,10.72l2.12,1l0,3.2l-11.32,0l0-3.2l3.2-1l0-22.48l-3.2-0.8l0-3.2z M142.0416,62.5l-0.72-2.6s-3.08,3-6.48,3c-3.88,0-6.24-2.28-6.24-6.28c0-4.72,3.56-6.6,9.64-6.6l2.8,0l0-2.2c0-2.04-1.08-2.92-3.08-2.92c-2.04,0-3.52,0.6-3.52,0.6l-0.6,2.52l-3.6,0l-0.28-5.92s4.84-1.6,8.68-1.6c6.08,0,8.4,2.12,8.4,7.92l0,9.88l3,0.72l0,3.2z M141.0416,53.42l-2.28,0c-3.12,0-4.36,0.8-4.36,2.6c0,1.52,0.84,2.4,2.36,2.4c2.12,0,4.28-2.32,4.28-2.32l0-2.68z M163.622,40.9l0.36,2.76s2.88-3.16,5.56-3.16c2.2,0,3.72,0.72,3.72,0.72l-0.32,7.68l-3.6,0l-0.6-3.4c-2.32,0-4.32,2.24-4.32,2.24l0,10.56l4,1l0,3.2l-13.2,0l0-3.2l3.2-1l0-13l-3.2-1l0-3.2z M197.1624,53.02l-13.28,0c0.24,3.2,2.08,5.08,4.84,5.08c3.32,0,6.72-1.88,6.72-1.88l1.72,3.32s-4,3.36-9.12,3.36c-6.88,0-10.4-4-10.4-10.8c0-7,3.96-11.6,10.68-11.6c5.96,0,9.08,3.68,9.08,9.4c0,1.52-0.24,3-0.24,3.12z M183.9624,49.3l7.24,0c0-2.28-0.96-4-3.28-4c-2.24,0-3.64,1.64-3.96,4z M206.7028,55.5l0.32,2.6s1.4,0.4,3.36,0.4c2.2,0,3.28-0.68,3.28-1.96c0-3.28-10.68-2.08-10.68-9.2c0-5,4-6.84,8.24-6.84c3.6,0,7.44,1.2,7.44,1.2l-0.16,6l-3.4,0l-0.6-2.4s-1.16-0.4-2.76-0.4c-1.72,0-2.76,0.72-2.76,2.04c0,3.24,10.68,1.84,10.68,8.76c0,4.6-3.72,7.2-9.2,7.2c-3.8,0-7.36-0.88-7.36-0.88l0-6.52l3.6,0z M239.4432,57.38l1.44,3.04c-1.96,1.44-4.2,2.48-6.8,2.48c-4.6,0-5.92-3.2-5.92-7.8l0-9.2l-3.72,0l0-3.88l3.72-0.52l0-5.52l6-1.08l0,6.6l5.6,0l0,4.4l-5.6,0l0,8.8c0,2.56,0.44,3.6,2.12,3.6c1.08,0,2.64-0.64,3.16-0.92z"/><path fill="#d6820d" d="M262.644,62.5l0-3.4l3-1.2l0-18.8l-3-1.2l0-3.4l9.2-0.2l3.04,0c6.56,0,10.4,2.72,10.4,8.16c0,3.76-1.8,6.2-4.52,7.56c0.44,0.52,1.04,1.28,1.68,2.6l2.68,5.48l2.72,1l0,3.4l-7.4,0l-3.36-7.4c-1.36-3.04-1.72-3.68-3.84-3.68l-1.4,0l0,6.48l2.88,1.2l0,3.4l-12.08,0z M271.844,47.22l2.28,0c3.16,0,5-1.52,5-4.2c0-2.28-1.52-3.92-4-3.92l-3.28,0l0,8.12z M306.4244,33.82c8,0,12.6,5.28,12.6,14.2c0,9-5.4,15-13.4,15s-12.4-5-12.4-14.4c0-9.2,5.08-14.8,13.2-14.8z M306.2244,38.82c-4,0-6.2,2.48-6.2,9.6c0,6.6,1.8,9.6,5.8,9.6s6.4-2.6,6.4-9.8c0-6.6-2-9.4-6-9.4z"/></svg>
