<?xml version="1.0"?>
<svg version="1.1" xmlns="http://www.w3.org/2000/svg" width="340" height="77" style=""><path fill="#228dab" d="M16.240234375,30.931640625q-0.048828125-0.595703125,0.078125-1.03515625t0.5078125-0.72265625t1.220703125-0.283203125l3.14453125,0q0.64453125,0,1.689453125,0.068359375t2.24609375,0.205078125t2.392578125,0.419921875t2.177734375,0.703125t1.6015625,1.03515625t0.615234375,1.455078125q0,1.19140625-0.693359375,2.236328125t-1.73828125,1.884765625t-2.20703125,1.494140625t-2.080078125,1.181640625q3.6328125,0.80078125,5.68359375,3.3203125t2.05078125,6.2890625q0,1.9921875-0.76171875,3.935546875t-2.080078125,3.505859375t-3.125,2.51953125t-3.876953125,0.95703125q-0.2734375,0-0.615234375-0.05859375t-0.625-0.185546875t-0.48828125-0.361328125t-0.205078125-0.60546875q0-1.71875,1.85546875-1.71875q0.3125,0,0.732421875,0.087890625t0.654296875,0.361328125q1.07421875-0.44921875,1.962890625-1.42578125t1.50390625-2.177734375t0.95703125-2.51953125t0.341796875-2.392578125q0-1.2890625-0.380859375-2.626953125t-1.103515625-2.48046875t-1.77734375-1.923828125t-2.421875-0.9765625q-0.3515625-0.0390625-0.771484375-0.05859375l-0.83984375-0.0390625t-0.8203125-0.1171875t-0.693359375-0.3125q0.15625,3.2421875,0.400390625,6.46484375t0.654296875,6.46484375q0.15625,0.15625,0.21484375,0.458984375t0.09765625,0.64453125t0.0390625,0.654296875l0,0.52734375q0,0.3515625-0.234375,0.576171875t-0.556640625,0.361328125t-0.68359375,0.17578125t-0.634765625,0.0390625q-0.87890625,0-1.34765625-0.234375t-0.6640625-0.68359375t-0.25390625-1.025390625t-0.09765625-1.259765625q-0.52734375-5.44921875-0.76171875-10.78125t-0.234375-10.78125q0-0.64453125-0.048828125-1.240234375z M19.84375,30.1015625q0,2.40234375,0.15625,4.814453125t0.2734375,4.814453125q0.87890625-0.52734375,2.3046875-1.240234375t2.763671875-1.572265625t2.294921875-1.89453125t0.95703125-2.24609375q0-0.95703125-1.1328125-1.455078125t-2.63671875-0.7421875t-2.939453125-0.302734375t-2.041015625-0.17578125z M36.1068359375,49.49609375q0-0.390625,0.087890625-1.03515625t0.205078125-1.279296875t0.2734375-1.181640625t0.37109375-0.703125q0.15625-0.15625,0.537109375-0.3125t0.80078125-0.224609375t0.78125,0.05859375t0.439453125,0.517578125q-0.2734375,0.3515625-0.498046875,1.201171875t-0.341796875,1.884765625q-0.09765625,0.87890625-0.09765625,1.81640625l0,0.33203125q0.01953125,1.09375,0.1953125,2.01171875t0.537109375,1.513671875t1.005859375,0.595703125q1.3671875,0,2.5-1.259765625t2.01171875-3.076171875t1.54296875-3.857421875t1.1328125-3.564453125q0.1171875-0.44921875,0.556640625-0.60546875t0.947265625-0.107421875t0.908203125,0.244140625t0.478515625,0.46875q-0.390625,3.28125-0.615234375,6.5625t-0.224609375,6.6015625q0,0.64453125,0.05859375,1.181640625t-0.05859375,0.91796875t-0.517578125,0.60546875t-1.279296875,0.224609375q-0.1953125,0-0.498046875-0.0390625t-0.625-0.126953125t-0.546875-0.263671875t-0.224609375-0.41015625q0-1.4453125,0.107421875-2.96875t0.302734375-2.94921875q-0.52734375,0.76171875-1.162109375,1.513671875t-1.396484375,1.357421875t-1.640625,0.966796875t-1.89453125,0.361328125q-1.4453125,0-2.275390625-0.68359375t-1.25-1.708984375t-0.52734375-2.236328125t-0.107421875-2.34375z M54.479296875,50.82421875q0-1.40625,0.361328125-2.822265625t1.123046875-2.5390625t1.943359375-1.826171875t2.783203125-0.703125q0.68359375,0,1.50390625,0.166015625t1.513671875,0.52734375t1.171875,0.9375t0.478515625,1.416015625q0,0.52734375-0.2734375,0.703125t-0.72265625,0.17578125l-0.13671875-0.1953125t-0.380859375-0.498046875t-0.517578125-0.64453125t-0.52734375-0.576171875q-0.80078125-0.80078125-1.50390625-0.859375l-0.15625,0q-0.5859375,0-1.09375,0.3515625q-0.56640625,0.4296875-1.005859375,1.2109375t-0.732421875,1.66015625t-0.458984375,1.77734375t-0.166015625,1.484375q0,0.80078125,0.185546875,1.826171875t0.625,1.943359375t1.11328125,1.54296875t1.728515625,0.625q0.95703125,0,1.73828125-0.46875t1.494140625-1.044921875t1.396484375-1.03515625t1.40625-0.458984375q0.3125,0,0.634765625,0.078125t0.322265625,0.41015625l0,0.1171875q-0.3515625,0.91796875-1.19140625,1.62109375t-1.884765625,1.220703125t-2.16796875,0.771484375t-2.001953125,0.25390625q-1.640625,0-2.880859375-0.537109375t-2.060546875-1.474609375t-1.240234375-2.255859375t-0.419921875-2.880859375z M71.5236328125,53.34375l0-1.8359375q0-0.99609375,0.048828125-2.822265625t0.126953125-4.00390625t0.21484375-4.541015625t0.3125-4.462890625t0.419921875-3.759765625t0.556640625-2.4609375q0.1953125-0.44921875,0.64453125-0.56640625t0.87890625-0.1171875q0.68359375,0,1.201171875,0.302734375t0.517578125,1.103515625l-0.3515625,0.390625q-0.68359375,4.51171875-0.87890625,9.0625t-0.2734375,9.1015625q0.48828125-0.76171875,1.103515625-1.494140625t1.3671875-1.298828125t1.62109375-0.908203125t1.904296875-0.341796875q1.328125,0,2.197265625,0.80078125t1.435546875,2.080078125t0.83984375,2.861328125t0.419921875,3.1640625t0.205078125,2.998046875t0.17578125,2.353515625q-0.37109375,0.5078125-1.09375,0.5078125l-0.05859375,0q-0.3125,0-0.68359375-0.078125t-0.48828125-0.390625l0.0390625,0.0390625q-0.2734375-0.60546875-0.37109375-1.748046875t-0.15625-2.51953125t-0.205078125-2.822265625t-0.439453125-2.6171875t-0.859375-1.93359375t-1.5234375-0.80078125l-0.1171875,0q-1.15234375,0-1.93359375,0.703125q-0.8203125,0.7421875-1.328125,1.953125t-0.78125,2.6953125t-0.419921875,2.861328125t-0.224609375,2.5t-0.1953125,1.650390625q-0.1171875,0.44921875-0.693359375,0.595703125t-0.986328125,0.146484375q-0.95703125,0-1.5625-0.546875q-0.44921875-1.07421875-0.52734375-2.67578125t-0.078125-3.125z M90.20859375,51.21484375q0-1.328125,0.361328125-2.55859375t1.083984375-2.197265625t1.806640625-1.54296875t2.509765625-0.576171875q0.87890625,0,1.943359375,0.263671875t2.001953125,0.78125t1.5625,1.318359375t0.625,1.8359375q0,0.48828125-0.166015625,0.7421875t-0.673828125,0.25390625l-0.21484375-0.0390625q0.56640625,1.5234375,0.9765625,3.125t0.80078125,3.203125q0.15625,0.3125,0.234375,0.556640625t0.078125,0.478515625q0,0.3125-0.17578125,0.517578125t-0.458984375,0.302734375t-0.5859375,0.13671875t-0.537109375,0.0390625q-0.83984375,0-1.259765625-0.29296875t-0.60546875-0.80078125t-0.224609375-1.142578125t-0.15625-1.279296875q-0.234375,0.76171875-0.615234375,1.484375t-0.8984375,1.298828125t-1.220703125,0.91796875t-1.58203125,0.341796875q-1.2890625,0-2.16796875-0.7421875t-1.416015625-1.826171875t-0.78125-2.314453125t-0.244140625-2.28515625z M92.98203125,50.94140625q0,0.72265625,0.09765625,1.5234375t0.322265625,1.58203125t0.576171875,1.474609375t0.87890625,1.220703125q0.95703125-1.03515625,1.416015625-2.51953125t0.8203125-2.861328125t0.8203125-2.36328125t1.416015625-0.986328125q0.60546875,0,1.015625,0.21484375q-0.1953125-0.48828125-0.64453125-0.947265625t-1.005859375-0.83984375t-1.15234375-0.625t-1.123046875-0.244140625q-0.15625,0-0.361328125,0.048828125t-0.322265625,0.009765625q-0.80078125,0.234375-1.318359375,0.810546875t-0.83984375,1.357421875t-0.458984375,1.6015625t-0.13671875,1.54296875z M107.1357421875,45.74609375q0-0.80078125,0.283203125-1.34765625t1.201171875-0.546875q0.3515625,0,0.87890625,0.107421875t0.60546875,0.537109375q0.1953125,1.15234375,0.21484375,2.5t0.13671875,2.5390625q0.44921875-0.87890625,1.15234375-1.89453125t1.6015625-1.875t1.953125-1.42578125t2.1484375-0.56640625q0.078125,0,0.29296875,0.05859375t0.400390625,0.166015625t0.224609375,0.244140625t-0.21484375,0.25390625q-0.078125,0.234375-0.33203125,0.283203125t-0.44921875,0.048828125q-0.1171875,0-0.37109375-0.09765625q-1.4453125,0.76171875-2.4609375,2.0703125t-1.66015625,2.900390625t-0.9375,3.359375t-0.29296875,3.447265625q0,0.83984375-0.380859375,1.015625t-1.220703125,0.17578125q-0.44921875,0-0.947265625-0.09765625t-0.693359375-0.625q-0.3515625-1.11328125-0.576171875-2.55859375t-0.341796875-2.978515625t-0.166015625-3.017578125t-0.048828125-2.67578125z M121.016015625,52.015625q0-1.3671875,0.302734375-3.22265625t1.025390625-3.515625t1.904296875-2.822265625t2.978515625-1.162109375q1.6796875,0,2.51953125,0.966796875t0.83984375,2.607421875q0,1.07421875-0.400390625,2.353515625t-1.142578125,2.421875t-1.7578125,1.904296875t-2.265625,0.76171875l-0.5078125-0.0390625q0,0.52734375,0.15625,1.416015625t0.458984375,1.767578125t0.78125,1.54296875t1.162109375,0.6640625q0.99609375,0,1.9140625-0.80078125t1.73828125-1.77734375t1.5234375-1.77734375t1.2890625-0.80078125q0.3125,0,0.64453125,0.09765625t0.37109375,0.546875q0,0.2734375-0.146484375,0.44921875t-0.263671875,0.390625q-0.60546875,1.03515625-1.318359375,1.97265625t-1.611328125,1.69921875t-1.962890625,1.201171875t-2.353515625,0.439453125q-1.6796875,0-2.79296875-0.595703125t-1.796875-1.6015625t-0.986328125-2.32421875t-0.302734375-2.763671875z M124.512109375,50.53125l0.546875,0.48828125q0.390625,0.3515625,0.78125,0.15625t0.703125-0.712890625t0.576171875-1.279296875t0.46875-1.5625t0.302734375-1.5625t0.09765625-1.26953125l0-0.6640625t-0.05859375-0.703125t-0.205078125-0.556640625t-0.458984375-0.283203125q-0.09765625-0.01953125-0.17578125-0.01953125q-0.6640625,0-1.1328125,0.83984375q-0.5078125,0.9375-0.8203125,2.275390625t-0.44921875,2.744140625t-0.17578125,2.109375z M137.3376953125,46.17578125q0-0.80078125,0.46875-1.376953125t1.142578125-0.9375t1.474609375-0.537109375t1.484375-0.17578125q0.52734375,0,1.40625,0.15625t1.71875,0.46875t1.455078125,0.8203125t0.615234375,1.19140625q0,0.3125-0.234375,0.556640625t-0.48828125,0.244140625q-0.52734375,0-0.95703125-0.341796875t-0.888671875-0.72265625t-1.005859375-0.72265625t-1.23046875-0.341796875t-1.240234375,0.439453125t-0.556640625,1.162109375q0,1.19140625,0.83984375,2.333984375t1.845703125,2.40234375t1.845703125,2.646484375t0.83984375,3.06640625q0,0.72265625-0.302734375,1.220703125t-0.80078125,0.810546875t-1.123046875,0.478515625t-1.2109375,0.166015625q-0.64453125,0-1.50390625-0.302734375t-1.62109375-0.80078125t-1.279296875-1.162109375t-0.517578125-1.38671875q0-0.3515625,0.498046875-0.44921875t0.732421875-0.09765625q0.1171875,0,0.361328125,0.078125t0.478515625,0.17578125t0.419921875,0.21484375t0.146484375,0.25390625q0.1953125,0.234375,0.595703125,0.693359375t0.80078125,0.7421875t0.703125,0.205078125t0.302734375-0.87890625q0-1.5234375-0.8203125-2.802734375t-1.787109375-2.5t-1.787109375-2.421875t-0.8203125-2.568359375z M150.3,38.8125q0-0.2734375,0.5859375-0.46875t1.328125-0.322265625t1.435546875-0.185546875t0.947265625-0.09765625q0-0.52734375,0.0390625-1.064453125t0.21484375-0.95703125t0.556640625-0.673828125t1.064453125-0.25390625q0.56640625,0,0.859375,0.13671875t0.625,0.56640625q0.078125,0.234375,0.078125,0.44921875l0,0.654296875t-0.0390625,0.673828125q0.72265625-0.078125,1.435546875-0.185546875t1.435546875-0.107421875q0.52734375,0,0.72265625,0.01953125t0.390625,0.46875q0.15625,0.44921875-0.380859375,0.68359375t-1.2890625,0.3515625t-1.494140625,0.17578125t-0.8984375,0.05859375q-0.234375,3.359375-0.478515625,6.66015625t-0.244140625,6.69921875q0,1.5234375,0.09765625,3.14453125t0.546875,3.06640625q0.1171875,0.44921875,0.390625,0.83984375t0.2734375,0.83984375q0,0.2734375-0.21484375,0.4296875t-0.517578125,0.263671875t-0.60546875,0.126953125t-0.498046875,0.01953125q-1.23046875,0-1.875-0.91796875t-0.927734375-2.197265625t-0.302734375-2.626953125t-0.01953125-2.1875q0-1.71875,0.068359375-3.515625t0.166015625-3.5546875t0.2734375-3.4375t0.41015625-3.125q-0.68359375,0.078125-1.337890625,0.17578125t-1.337890625,0.09765625q-0.15625,0-0.419921875-0.01953125t-0.498046875-0.09765625t-0.400390625-0.21484375t-0.166015625-0.390625z"/><path fill="#0d90d6" d="M199.534296875,51.7q-2,0-3.72-0.32q0.56,1.76,2.36,7.96q0.56,1.8,1.76,3.64q1.64,2.36,3.04,2.36q1.68,0,2.8-3.4q0.2-0.8,0.42-0.8t0.32,0.46t0.1,0.62q0,1-1.12,2.56q-1.48,2.2-3.24,2.2t-3.24-1.76t-2.9-6.42t-1.42-5.94q0-0.2,0.04-0.32q-4.8,6.36-6.88,8.4q-4.64,4.52-9.48,4.52q-3.4,0-3.4-2.56q0-1.28,0.8-2.82t1.96-2.7t2.04-1.16q0.16,0,0.16,0.08q0,0.2-1,1t-1.92,2.26t-0.92,2.66q0,2.12,2.84,2.12q5.32,0,14.64-12.48q0.52-0.68,0.88-0.96l-0.64-0.24q-0.52,0.2-0.84,0.2q-0.84,0-0.84-0.68q0-0.92,1.24-1.2q0.16-0.04,0.28-0.04q0.72,0,1.68,0.72q3.52-3.92,3.6-4q2.92-3,3.94-3t1.02,0.88q0,0.4-0.18,0.76t-0.42,0.36q-0.24,0.08-0.24-0.24q0-0.16,0.24-0.48q0.04-0.56-0.36-0.56q-1.28,0-6.2,6.8q1.2,0.08,2,0.08q9.28,0,11.6-4.8q0.48-1.04,0.48-1.92q0-1.76-1.6-3.04q-2.56-2.08-8.32-2.08t-11.76,2.92q-7.28,3.56-7.28,8.36q0,1.56,1.96,1.56t4.16-1.44t2.96-2.84q0.28-0.52,0.54-0.52t0.14,0.32q-0.76,2.24-3.38,3.82t-5.46,1.58t-2.84-1.8l0-0.28q0.6-5.24,6.42-8.9t14.02-3.66q7.64,0,10.84,2.64q1.92,1.6,1.92,3.76q0,0.92-0.44,2q-1.24,2.92-5.08,4.34t-8.08,1.42z M240.981096875,48.26q0,5-5.12,9.56q-7.88,7.04-17.64,7.04q-1.08,0-1.68-0.04q-3.2-0.16-5.14-2.1t-1.94-5.02t1.64-6.72q2.08-4.6,8.12-8.96q6.96-4.96,14.4-4.96q4,0,6.08,1.56t2.08,3.88q0,1.44-1.12,3.56q0.32,1.08,0.32,2.2z M240.141096875,44.86q0.4-0.96,0.4-2.14t-0.88-2.42q-1.72-2.4-6.08-2.4q-6.04,0-11.4,3.74t-8.36,9.42q-2.2,4.12-2.2,7.4q0,5.28,5.32,5.56q0.56,0.04,1.12,0.04q7.88,0,15-6.36q5.12-4.56,5.52-8.68q-2.08,2.28-7.2,5.44l-0.32,0.08q-0.04,0-0.04-0.04q0-0.16,1.08-1.08l2.24-1.84q2.88-2.52,4.2-4.12q-0.28-2.24-2.02-3.74t-3.98-2.18q-1.12-0.28-3.46-0.36t-2.34-0.16t0.08-0.16q1.84-0.6,3.54-0.6t3.9,0.52q4.2,1,5.88,4.08z"/></svg>
