<?xml version="1.0"?>
<svg version="1.1" xmlns="http://www.w3.org/2000/svg" width="350" height="80" style=""><path fill="#132670" d="M33.03515625,61.5859375l-14.80078125,0l0-25.69921875l14.80078125,0l0,4.46484375l-9.3515625,0l0,5.642578125l8.701171875,0l0,4.46484375l-8.701171875,0l0,6.626953125l9.3515625,0l0,4.5z M46.67173828125,61.9375q-3.462890625,0-5.4404296875-2.689453125t-1.9775390625-7.453125q0-4.833984375,2.0126953125-7.5322265625t5.5458984375-2.6982421875q3.708984375,0,5.66015625,2.8828125l0.17578125,0q-0.404296875-2.197265625-0.404296875-3.919921875l0-6.29296875l5.37890625,0l0,27.3515625l-4.11328125,0l-1.037109375-2.548828125l-0.228515625,0q-1.828125,2.900390625-5.572265625,2.900390625z M48.55259765625,57.666015625q2.056640625,0,3.0146484375-1.1953125t1.0458984375-4.060546875l0-0.580078125q0-3.1640625-0.9755859375-4.53515625t-3.1728515625-1.37109375q-1.79296875,0-2.7861328125,1.5205078125t-0.9931640625,4.4208984375t1.001953125,4.3505859375t2.865234375,1.4501953125z M65.4762890625,36.853515625q0-2.619140625,2.91796875-2.619140625t2.91796875,2.619140625q0,1.248046875-0.7294921875,1.9423828125t-2.1884765625,0.6943359375q-2.91796875,0-2.91796875-2.63671875z M71.0661328125,61.5859375l-5.361328125,0l0-19.65234375l5.361328125,0l0,19.65234375z M97.30623046875,61.5859375l-5.361328125,0l0-11.478515625q0-2.126953125-0.755859375-3.1904296875t-2.408203125-1.0634765625q-2.25,0-3.251953125,1.5029296875t-1.001953125,4.9833984375l0,9.24609375l-5.361328125,0l0-19.65234375l4.095703125,0l0.720703125,2.513671875l0.298828125,0q0.896484375-1.423828125,2.4697265625-2.1533203125t3.5771484375-0.7294921875q3.427734375,0,5.203125,1.8544921875t1.775390625,5.3525390625l0,12.814453125z M116.233828125,41.564453125q3.48046875,0,5.44921875,2.7158203125t1.96875,7.4443359375q0,4.869140625-2.0302734375,7.541015625t-5.5283203125,2.671875q-3.462890625,0-5.431640625-2.513671875l-0.369140625,0l-0.896484375,2.162109375l-4.095703125,0l0-27.3515625l5.361328125,0l0,6.36328125q0,1.212890625-0.2109375,3.884765625l0.2109375,0q1.880859375-2.91796875,5.572265625-2.91796875z M114.511171875,45.853515625q-1.986328125,0-2.900390625,1.2216796875t-0.94921875,4.0341796875l0,0.580078125q0,3.1640625,0.9404296875,4.53515625t2.9794921875,1.37109375q1.65234375,0,2.6279296875-1.5205078125t0.9755859375-4.4208984375t-0.984375-4.3505859375t-2.689453125-1.4501953125z M144.47783203125,61.5859375l-0.720703125-2.513671875l-0.28125,0q-0.861328125,1.37109375-2.443359375,2.1181640625t-3.603515625,0.7470703125q-3.462890625,0-5.220703125-1.8544921875t-1.7578125-5.3349609375l0-12.814453125l5.361328125,0l0,11.478515625q0,2.126953125,0.755859375,3.1904296875t2.408203125,1.0634765625q2.25,0,3.251953125-1.5029296875t1.001953125-4.9833984375l0-9.24609375l5.361328125,0l0,19.65234375l-4.11328125,0z M167.6593359375,41.564453125q1.08984375,0,1.810546875,0.158203125l-0.404296875,5.02734375q-0.650390625-0.17578125-1.58203125-0.17578125q-2.56640625,0-3.9990234375,1.318359375t-1.4326171875,3.69140625l0,10.001953125l-5.361328125,0l0-19.65234375l4.060546875,0l0.791015625,3.3046875l0.263671875,0q0.9140625-1.65234375,2.4697265625-2.6630859375t3.3837890625-1.0107421875z M192.61623046875,41.93359375l0,2.724609375l-3.076171875,0.791015625q0.84375,1.318359375,0.84375,2.953125q0,3.1640625-2.2060546875,4.9306640625t-6.1259765625,1.7666015625l-0.966796875-0.052734375l-0.791015625-0.087890625q-0.826171875,0.6328125-0.826171875,1.40625q0,1.16015625,2.953125,1.16015625l3.33984375,0q3.234375,0,4.9306640625,1.388671875t1.6962890625,4.078125q0,3.4453125-2.8740234375,5.34375t-8.2529296875,1.8984375q-4.11328125,0-6.2841796875-1.4326171875t-2.1708984375-4.0166015625q0-1.775390625,1.107421875-2.970703125t3.251953125-1.705078125q-0.826171875-0.3515625-1.44140625-1.1513671875t-0.615234375-1.6962890625q0-1.125,0.650390625-1.8720703125t1.880859375-1.4677734375q-1.546875-0.66796875-2.4521484375-2.14453125t-0.9052734375-3.48046875q0-3.216796875,2.091796875-4.974609375t5.9765625-1.7578125q0.826171875,0,1.9599609375,0.1494140625t1.4501953125,0.2197265625l6.85546875,0z M177.44630859375,64.36328125q0,1.107421875,1.0634765625,1.740234375t2.9794921875,0.6328125q2.8828125,0,4.517578125-0.791015625t1.634765625-2.162109375q0-1.107421875-0.966796875-1.529296875t-2.98828125-0.421875l-2.77734375,0q-1.4765625,0-2.4697265625,0.6943359375t-0.9931640625,1.8369140625z M179.39748046875,48.3671875q0,1.599609375,0.7294921875,2.53125t2.2236328125,0.931640625q1.51171875,0,2.21484375-0.931640625t0.703125-2.53125q0-3.55078125-2.91796875-3.55078125q-2.953125,0-2.953125,3.55078125z M216.465703125,61.5859375l-5.361328125,0l0-11.478515625q0-4.25390625-3.1640625-4.25390625q-2.25,0-3.251953125,1.529296875t-1.001953125,4.95703125l0,9.24609375l-5.361328125,0l0-27.3515625l5.361328125,0l0,5.572265625q0,0.650390625-0.123046875,3.05859375l-0.123046875,1.58203125l0.28125,0q1.79296875-2.8828125,5.6953125-2.8828125q3.462890625,0,5.255859375,1.86328125t1.79296875,5.34375l0,12.814453125z"/><path fill="#c74b32" d="M250.79955078125,35.88671875l0,16.62890625q0,2.84765625-1.2744140625,4.9921875t-3.6826171875,3.287109375t-5.6953125,1.142578125q-4.95703125,0-7.69921875-2.5400390625t-2.7421875-6.9521484375l0-16.55859375l5.431640625,0l0,15.732421875q0,2.970703125,1.1953125,4.359375t3.955078125,1.388671875q2.671875,0,3.8759765625-1.3974609375t1.2041015625-4.3857421875l0-15.697265625l5.431640625,0z M280.2388671875,61.5859375l-6.1875,0l-6.732421875-10.828125l-2.302734375,1.65234375l0,9.17578125l-5.44921875,0l0-25.69921875l5.44921875,0l0,11.759765625l2.14453125-3.0234375l6.9609375-8.736328125l6.046875,0l-8.96484375,11.373046875z"/></svg>
