<?xml version="1.0"?>
<svg version="1.1" xmlns="http://www.w3.org/2000/svg" width="400" height="83" style=""><path fill="#1c40d4" d="M26.6,54.06q0.56,0,0.56,1.32q0,2-1.98,3.74t-4.54,1.74q-1.64,0-3.16-0.8q-3.24-1.76-3.24-6.12q0-3.08,1.68-6.04q2.32-4.04,6.66-6.4t8.46-2.36q3,0,4.92,1.32q2.16,1.48,2.16,4.4q0,3.72-3.6,11.66t-3.6,8.98q0,0.32,0.2,0.2q1.04-0.68,9.54-10.86t11.82-12.58q2.96-2.2,4.94-3.3t4.06-1.1q0.56,0,0.84,0.04q1.08,0.08,1.08,1.12q0,0.52-0.36,0.52q-0.04,0-0.56-0.18t-0.88-0.18q-5.6,0-15.08,10.12q-3.56,3.8-8.66,10.24t-6.02,6.96q-3.24,1.84-3.64,1.84q-0.12,0-0.12-0.4q0-1.32,2.24-6.72q0.92-2.08,2.68-6.24l1.84-5.4q0.96-2.72,0.96-3.96q0-2.76-1.6-4.2t-4.6-1.44t-6.44,2.12q-3.72,2.4-5.56,5.92t-1.84,5.96t1,3.84q1.64,2.28,4.36,2.28q2.08,0,3.68-1.38t1.6-3.5q0-0.44-0.1-0.8t0.3-0.36z M57.6468,53.54l0.56-0.12q0.44,0,0.84,0.36t0.4,0.56t-2.48,3.86t-2.48,5.1q0,0.12,0.04,0.24q0.2,0.92,0.88,0.92q2.08,0,7.6-6.88q0.12-0.16,0.28-0.16t0.16,0.3t-0.36,0.78q-5.12,6.84-7.8,6.84q-0.36,0-0.68-0.12q-1.76-0.68-1.76-2.64q0-0.68,0.16-1.36l-2.48,2.4q-2.36,2.08-3.42,2.08t-2.02-0.68q-1.08-0.8-1.08-2.12q0-2.92,4.08-6.98t7.48-4.06q1.32,0,1.76,0.92q0.12,0.32,0.2,0.54t0.12,0.22z M45.6868,63.38q0,1.44,1,1.44q2.32,0,6.32-5.08l4.24-5.84q-0.32-0.56-1.04-0.56q-2.44,0-6.48,3.78t-4.04,6.26z M69.9736,64.9q-1.16,0.68-2.86,0.68t-2.6-1.12t-1.54-3.56q-0.72,0.72-1,0.72q-0.2,0-0.2-0.28t0.2-0.48q1.32-1.64,4.48-4.72l5.04-4.72q2.16-2.04,2.56-2.04q1.28,0,1.28,0.96q0,0.48-0.38,0.94t-0.56,0.72t-0.38,0.5q-0.72,1.24-1.46,5.12t-1.14,5.4q3.32-0.04,6.84-4.32q0.4-0.4,0.6-0.4t0.2,0.26t-0.36,0.7q-2.32,2.72-4.32,3.8q-1.2,0.6-3.12,1z M64.5736,60.46q0,1.36,0.9,2.22t2.02,0.86t1.72-0.44q0.8-0.44,1.58-3.68t0.94-5.72l0.16-1.36q-2.2,1.64-4.7,4.24t-2.58,3.44q-0.04,0.24-0.04,0.44z M88.5604,49.56q0.54,0.38,0.54,0.9t-0.5,0.9t-1.1,0.38t-1.1-0.44t-0.5-1q0-1.12,1.52-1.12q0.6,0,1.14,0.38z M80.1804,65.94q-2.04,0-2.04-2.64q0-2.16,2.36-5.98t3.8-3.86q0.4,0,0.9,0.32t0.5,0.64q-0.2,0.28-0.48,0.62t-0.6,0.74t-0.88,1.14t-1.08,1.42q-3,3.88-3,5.34t1,1.46q0.84,0,2.28-0.92q3.36-2.08,5.32-4.56q0.72-0.92,0.98-0.92t0.26,0.32t-0.92,1.28t-1.46,1.52t-0.74,0.74t-0.74,0.68t-0.82,0.7t-0.8,0.6t-0.92,0.58t-0.92,0.42q-0.84,0.36-2,0.36z M92.4272,64.7q1.32,0,3.4-1.4t4.04-3.8q0.48-0.64,0.76-0.64t0.28,0.24t-1.64,2.08q-4,4.4-6.68,4.4q-1.32,0-2.24-0.62t-0.92-1.92t0.68-3.02q1.16-2.72,3.72-6.84q4.68-7.6,6.64-7.6q0.4,0,0.82,0.3t0.46,0.66q-0.92,1.24-3.54,4.76t-3.62,5.06t-1.5,2.3t-0.74,1.18t-0.56,1.1q-0.68,1.36-0.68,2.56t1.32,1.2z M103.074,66.02q-0.44,0-0.8-0.12q-2.56-0.72-2.56-2.88q0-2.8,3.52-6.48t6.32-3.68q0.92,0,1.5,0.5t0.58,1.22q0,2.24-3.38,4.28t-5.5,2.04q-0.32,0-0.56-0.08q-0.6,1.08-0.6,2.28q0,2.08,1.98,2.08t5.14-2.68q2.44-1.96,4.16-4.16q0.36-0.48,0.62-0.48t0.26,0.24t-0.32,0.68q-2.16,2.84-5.2,5.04t-5.16,2.2z M110.634,54.5q0-0.48-1.02-0.48t-2.9,1.56q-2.52,2.08-3.92,4.36q0.24,0.08,0.52,0.08q1.52,0,4.06-1.62t3.18-3.54q0.08-0.2,0.08-0.36z M117.2808,55.1l3.88,0.04q2.32,0,3.32-0.12q0.04,0.04,0.04,0.12q0,0.6-3.16,1.16q-1.72,0.24-3.22,0.5t-1.92,0.26t-1.4-0.18t-0.98-0.78q0-0.4,0.34-0.68t0.58-0.28t0.48-0.04l1.04,0l1,0z M134.2076,64.5q-3.52,2.72-5.16,2.72q-0.88,0-1.3-0.86t-0.42-1.86q0-1.92,1.62-5.76t3.1-3.84q0.76,0,1.3,3t1.1,4.36q2.72-2.88,7.88-9.6q6.48-8.52,8.6-9.32q0.72-0.28,1.48-0.28t1.26,0.32t0.5,0.8q0,0.68-1.16,0.8q-1.4,0.76-4.32,3.68q-2.92,2.84-4.68,5.32q-4.28,5.96-8.8,9.72q2.24,3.32,7.04,3.32q0.52,0,1.56-0.08q11.12-1.04,15.76-9.64q1.88-3.44,1.88-6.8t-2.44-6.04q-1.96-2.2-4.26-2.72t-4.7-0.52q-6.16,0-11.36,2.84q-5.48,3-5.48,6.72q0,1,0.54,1.64t0.74,0.72l-0.24,0q-1.04-0.2-1.84-1.04q-0.88-1.04-0.88-2.2q0-4,5.02-6.88t11.78-2.88q3.12,0,6.4,0.72t5.96,3.44q3.08,3.2,3.08,7.24q0,3-1.76,6.2q-3.04,5.52-9.08,8.08q-4.84,2.04-10.44,2.04t-8.28-3.36z M128.7676,64.34q0,1.24,0.48,2.16q1.72-0.76,4.16-3.16q-1.16-1.92-1.46-3.02t-0.42-2.9q-2.76,3.96-2.76,6.92z M134.4876,53.14q0.04,0,0.08-0.04q0,0.08-0.02,0.08t-0.06-0.04z M178.6144,53.54l0.56-0.12q0.44,0,0.84,0.36t0.4,0.56t-2.48,3.86t-2.48,5.1q0,0.12,0.04,0.24q0.2,0.92,0.88,0.92q2.08,0,7.6-6.88q0.12-0.16,0.28-0.16t0.16,0.3t-0.36,0.78q-5.12,6.84-7.8,6.84q-0.36,0-0.68-0.12q-1.76-0.68-1.76-2.64q0-0.68,0.16-1.36l-2.48,2.4q-2.36,2.08-3.42,2.08t-2.02-0.68q-1.08-0.8-1.08-2.12q0-2.92,4.08-6.98t7.48-4.06q1.32,0,1.76,0.92q0.12,0.32,0.2,0.54t0.12,0.22z M166.6544,63.38q0,1.44,1,1.44q2.32,0,6.32-5.08l4.24-5.84q-0.32-0.56-1.04-0.56q-2.44,0-6.48,3.78t-4.04,6.26z M190.0212,52.86q1.08,0,1.08,0.84q0,0.24-0.12,0.48q-3.6,5-4.32,7.56q9.32-9.32,11.32-9.32q0.2-0.04,0.36-0.04q1.12,0,1.12,1q0,0.2-0.08,0.4t-1.6,2.16q-1.76,2.08-2.98,4t-1.22,3.2t0.56,1.28q1.76,0,6.12-4.84q0.08-0.08,0.28-0.36q0.6-0.72,0.72-0.72t0.12,0.4t-0.56,1.04q-4.96,5.64-7.04,5.64q-1.96,0-1.96-2.16t1.6-4.96l2.56-4.16q-2.72,2-4.84,4.38t-3.86,4.62t-2.02,2.24q-0.6,0-0.94-0.5t-0.34-1.24t0.52-1.98t1.32-3l-2.4,2.52q-0.88,0.88-1.1,0.88t-0.22-0.26t0.32-0.58q1.48-1.48,2.56-2.84q1.04-1.36,4.28-5.2q0.36-0.48,0.76-0.48z M211.288,49.56q0.54,0.38,0.54,0.9t-0.5,0.9t-1.1,0.38t-1.1-0.44t-0.5-1q0-1.12,1.52-1.12q0.6,0,1.14,0.38z M202.908,65.94q-2.04,0-2.04-2.64q0-2.16,2.36-5.98t3.8-3.86q0.4,0,0.9,0.32t0.5,0.64q-0.2,0.28-0.48,0.62t-0.6,0.74t-0.88,1.14t-1.08,1.42q-3,3.88-3,5.34t1,1.46q0.84,0,2.28-0.92q3.36-2.08,5.32-4.56q0.72-0.92,0.98-0.92t0.26,0.32t-0.92,1.28t-1.46,1.52t-0.74,0.74t-0.74,0.68t-0.82,0.7t-0.8,0.6t-0.92,0.58t-0.92,0.42q-0.84,0.36-2,0.36z M214.3148,66.02q-0.44,0-0.8-0.12q-2.56-0.72-2.56-2.88q0-2.8,3.52-6.48t6.32-3.68q0.92,0,1.5,0.5t0.58,1.22q0,2.24-3.38,4.28t-5.5,2.04q-0.32,0-0.56-0.08q-0.6,1.08-0.6,2.28q0,2.08,1.98,2.08t5.14-2.68q2.44-1.96,4.16-4.16q0.36-0.48,0.62-0.48t0.26,0.24t-0.32,0.68q-2.16,2.84-5.2,5.04t-5.16,2.2z M221.8748,54.5q0-0.48-1.02-0.48t-2.9,1.56q-2.52,2.08-3.92,4.36q0.24,0.08,0.52,0.08q1.52,0,4.06-1.62t3.18-3.54q0.08-0.2,0.08-0.36z M227.2016,64.7q1.32,0,3.4-1.4t4.04-3.8q0.48-0.64,0.76-0.64t0.28,0.24t-1.64,2.08q-4,4.4-6.68,4.4q-1.32,0-2.24-0.62t-0.92-1.92t0.68-3.02q1.16-2.72,3.72-6.84q4.68-7.6,6.64-7.6q0.4,0,0.82,0.3t0.46,0.66q-0.92,1.24-3.54,4.76t-3.62,5.06t-1.5,2.3t-0.74,1.18t-0.56,1.1q-0.68,1.36-0.68,2.56t1.32,1.2z"/><path fill="#e61220" d="M277.78035625,50.93359375q0,7.05078125-4.013671875,10.80078125t-11.591796875,3.75l-8.0859375,0l0-28.5546875l8.96484375,0q6.9921875,0,10.859375,3.69140625t3.8671875,10.3125z M271.49129375,51.08984375q0-9.19921875-8.125-9.19921875l-3.22265625,0l0,18.59375l2.59765625,0q8.75,0,8.75-9.39453125z M303.9282078125,65.484375l-2.0703125-6.796875l-10.41015625,0l-2.0703125,6.796875l-6.5234375,0l10.078125-28.671875l7.40234375,0l10.1171875,28.671875l-6.5234375,0z M300.4125828125,53.609375q-2.87109375-9.23828125-3.232421875-10.44921875t-0.517578125-1.9140625q-0.64453125,2.5-3.69140625,12.36328125l7.44140625,0z M342.126840625,65.484375l-7.6953125,0l-12.421875-21.6015625l-0.17578125,0q0.37109375,5.72265625,0.37109375,8.1640625l0,13.4375l-5.41015625,0l0-28.5546875l7.63671875,0l12.40234375,21.38671875l0.13671875,0q-0.29296875-5.56640625-0.29296875-7.87109375l0-13.515625l5.44921875,0l0,28.5546875z"/></svg>
