<?xml version="1.0"?>
<svg version="1.1" xmlns="http://www.w3.org/2000/svg" width="400" height="80" style="border: dashed 2px #aaa"><path fill="#132670" d="M32.89453125,35.88671875l5.501953125,0l-8.736328125,25.69921875l-5.94140625,0l-8.71875-25.69921875l5.501953125,0l4.833984375,15.29296875q0.404296875,1.353515625,0.8349609375,3.1552734375t0.5361328125,2.5048828125q0.193359375-1.6171875,1.318359375-5.66015625z M56.16392578125,61.5859375l-1.037109375-2.671875l-0.140625,0q-1.353515625,1.705078125-2.7861328125,2.3642578125t-3.7353515625,0.6591796875q-2.830078125,0-4.4560546875-1.6171875t-1.6259765625-4.60546875q0-3.12890625,2.1884765625-4.6142578125t6.6005859375-1.6435546875l3.41015625-0.10546875l0-0.861328125q0-2.98828125-3.05859375-2.98828125q-2.35546875,0-5.537109375,1.423828125l-1.775390625-3.62109375q3.392578125-1.775390625,7.5234375-1.775390625q3.955078125,0,6.064453125,1.72265625t2.109375,5.23828125l0,13.095703125l-3.744140625,0z M54.58189453125,52.48046875l-2.07421875,0.0703125q-2.337890625,0.0703125-3.48046875,0.84375t-1.142578125,2.35546875q0,2.267578125,2.6015625,2.267578125q1.86328125,0,2.9794921875-1.072265625t1.1162109375-2.84765625l0-1.6171875z M81.6130078125,55.75q0,3.0234375-2.1005859375,4.60546875t-6.2841796875,1.58203125q-2.14453125,0-3.65625-0.2900390625t-2.830078125-0.8525390625l0-4.4296875q1.494140625,0.703125,3.3662109375,1.177734375t3.2958984375,0.474609375q2.91796875,0,2.91796875-1.6875q0-0.6328125-0.38671875-1.0283203125t-1.3359375-0.896484375t-2.53125-1.1689453125q-2.267578125-0.94921875-3.3310546875-1.7578125t-1.546875-1.8544921875t-0.4833984375-2.5751953125q0-2.619140625,2.0302734375-4.0517578125t5.7568359375-1.4326171875q3.55078125,0,6.908203125,1.546875l-1.6171875,3.8671875q-1.4765625-0.6328125-2.759765625-1.037109375t-2.619140625-0.404296875q-2.373046875,0-2.373046875,1.283203125q0,0.720703125,0.7646484375,1.248046875t3.3486328125,1.564453125q2.302734375,0.931640625,3.375,1.740234375t1.58203125,1.86328125t0.509765625,2.513671875z M88.04255859375,36.853515625q0-2.619140625,2.91796875-2.619140625t2.91796875,2.619140625q0,1.248046875-0.7294921875,1.9423828125t-2.1884765625,0.6943359375q-2.91796875,0-2.91796875-2.63671875z M93.63240234375,61.5859375l-5.361328125,0l0-19.65234375l5.361328125,0l0,19.65234375z M107.093203125,61.5859375l-5.361328125,0l0-27.3515625l5.361328125,0l0,27.3515625z M123.33134765625,45.37890625q-1.705078125,0-2.671875,1.0810546875t-1.107421875,3.0673828125l7.5234375,0q-0.03515625-1.986328125-1.037109375-3.0673828125t-2.70703125-1.0810546875z M124.08720703125,61.9375q-4.74609375,0-7.41796875-2.619140625t-2.671875-7.41796875q0-4.939453125,2.4697265625-7.6376953125t6.8291015625-2.6982421875q4.166015625,0,6.486328125,2.373046875t2.3203125,6.556640625l0,2.6015625l-12.673828125,0q0.087890625,2.28515625,1.353515625,3.568359375t3.55078125,1.283203125q1.775390625,0,3.357421875-0.369140625t3.3046875-1.177734375l0,4.1484375q-1.40625,0.703125-3.005859375,1.0458984375t-3.90234375,0.3427734375z M137.1964453125,54.1328125l0-4.39453125l9.439453125,0l0,4.39453125l-9.439453125,0z M174.73927734375,48.490234375q0,6.345703125-3.6123046875,9.720703125t-10.4326171875,3.375l-7.27734375,0l0-25.69921875l8.068359375,0q6.29296875,0,9.7734375,3.322265625t3.48046875,9.28125z M169.07912109375,48.630859375q0-8.279296875-7.3125-8.279296875l-2.900390625,0l0,16.734375l2.337890625,0q7.875,0,7.875-8.455078125z M194.598515625,61.5859375l-1.037109375-2.671875l-0.140625,0q-1.353515625,1.705078125-2.7861328125,2.3642578125t-3.7353515625,0.6591796875q-2.830078125,0-4.4560546875-1.6171875t-1.6259765625-4.60546875q0-3.12890625,2.1884765625-4.6142578125t6.6005859375-1.6435546875l3.41015625-0.10546875l0-0.861328125q0-2.98828125-3.05859375-2.98828125q-2.35546875,0-5.537109375,1.423828125l-1.775390625-3.62109375q3.392578125-1.775390625,7.5234375-1.775390625q3.955078125,0,6.064453125,1.72265625t2.109375,5.23828125l0,13.095703125l-3.744140625,0z M193.016484375,52.48046875l-2.07421875,0.0703125q-2.337890625,0.0703125-3.48046875,0.84375t-1.142578125,2.35546875q0,2.267578125,2.6015625,2.267578125q1.86328125,0,2.9794921875-1.072265625t1.1162109375-2.84765625l0-1.6171875z M224.47728515625,61.5859375l-5.361328125,0l0-11.478515625q0-2.126953125-0.755859375-3.1904296875t-2.408203125-1.0634765625q-2.25,0-3.251953125,1.5029296875t-1.001953125,4.9833984375l0,9.24609375l-5.361328125,0l0-19.65234375l4.095703125,0l0.720703125,2.513671875l0.298828125,0q0.896484375-1.423828125,2.4697265625-2.1533203125t3.5771484375-0.7294921875q3.427734375,0,5.203125,1.8544921875t1.775390625,5.3525390625l0,12.814453125z M232.2427734375,36.853515625q0-2.619140625,2.91796875-2.619140625t2.91796875,2.619140625q0,1.248046875-0.7294921875,1.9423828125t-2.1884765625,0.6943359375q-2.91796875,0-2.91796875-2.63671875z M237.8326171875,61.5859375l-5.361328125,0l0-19.65234375l5.361328125,0l0,19.65234375z M254.07076171875,45.37890625q-1.705078125,0-2.671875,1.0810546875t-1.107421875,3.0673828125l7.5234375,0q-0.03515625-1.986328125-1.037109375-3.0673828125t-2.70703125-1.0810546875z M254.82662109375,61.9375q-4.74609375,0-7.41796875-2.619140625t-2.671875-7.41796875q0-4.939453125,2.4697265625-7.6376953125t6.8291015625-2.6982421875q4.166015625,0,6.486328125,2.373046875t2.3203125,6.556640625l0,2.6015625l-12.673828125,0q0.087890625,2.28515625,1.353515625,3.568359375t3.55078125,1.283203125q1.775390625,0,3.357421875-0.369140625t3.3046875-1.177734375l0,4.1484375q-1.40625,0.703125-3.005859375,1.0458984375t-3.90234375,0.3427734375z M275.037421875,61.5859375l-5.361328125,0l0-27.3515625l5.361328125,0l0,27.3515625z"/><path fill="#c74b32" d="M321.7070703125,48.490234375q0,6.345703125-3.6123046875,9.720703125t-10.4326171875,3.375l-7.27734375,0l0-25.69921875l8.068359375,0q6.29296875,0,9.7734375,3.322265625t3.48046875,9.28125z M316.0469140625,48.630859375q0-8.279296875-7.3125-8.279296875l-2.900390625,0l0,16.734375l2.337890625,0q7.875,0,7.875-8.455078125z M345.24013671875,61.5859375l-1.86328125-6.1171875l-9.369140625,0l-1.86328125,6.1171875l-5.87109375,0l9.0703125-25.8046875l6.662109375,0l9.10546875,25.8046875l-5.87109375,0z M342.07607421875,50.8984375q-2.583984375-8.314453125-2.9091796875-9.404296875t-0.4658203125-1.72265625q-0.580078125,2.25-3.322265625,11.126953125l6.697265625,0z M379.61890625,61.5859375l-6.92578125,0l-11.1796875-19.44140625l-0.158203125,0q0.333984375,5.150390625,0.333984375,7.34765625l0,12.09375l-4.869140625,0l0-25.69921875l6.873046875,0l11.162109375,19.248046875l0.123046875,0q-0.263671875-5.009765625-0.263671875-7.083984375l0-12.1640625l4.904296875,0l0,25.69921875z"/></svg>
