<?xml version="1.0"?>
<svg version="1.1" xmlns="http://www.w3.org/2000/svg" width="400" height="83" style=""><path fill="#132670" d="M36.465,49.6l0,4.95l-9.09,0l0,8.55l8.055,0l1.035-3.69l4.05,0l0,9.09l-23.49,0l0-3.825l3.375-1.35l0-21.15l-3.375-1.35l0-3.825l10.35-0.225l12.6,0l0,8.685l-4.05,0l-1.125-3.285l-7.425,0l0,7.425l9.09,0z M64.34295,68.5l-0.405-2.385c-0.63,0.63-2.925,2.835-6.795,2.835c-6.3,0-9.225-4.59-9.225-12.015c0-8.46,4.05-13.185,12.285-13.185c1.08,0,2.385,0.225,3.375,0.45l0-5.715l-3.6-0.9l0-3.6l10.35-0.36l0,30.06l3.6,0.9l0,3.6z M63.57795,60.985l0-11.16c-0.855-0.405-2.205-0.675-3.51-0.675c-3.825,0-5.175,2.925-5.175,7.425c0,4.545,1.26,6.975,4.32,6.975c2.88,0,4.365-2.565,4.365-2.565z M82.3209,36.775c0-2.565,1.845-4.05,3.87-4.05c2.34,0,3.78,1.215,3.78,4.05c0,2.655-1.935,4.095-3.78,4.095c-2.43,0-3.87-1.44-3.87-4.095z M89.8809,63.775l3.15,1.125l0,3.6l-13.5,0l0-3.6l3.6-1.125l0-14.625l-3.6-1.125l0-3.6l10.35-0.225l0,19.575z M108.62385,44.2l0.315,3.105s4.275-3.465,8.28-3.465c4.365,0,6.84,3.105,6.84,8.01l0,11.925l3.15,1.125l0,3.6l-12.375,0l0-3.6l2.475-1.125l0-10.71c0-2.07-1.17-3.6-3.06-3.6c-2.79,0-4.815,2.565-4.815,2.565l0,11.745l2.475,1.125l0,3.6l-12.825,0l0-3.6l3.6-1.125l0-14.625l-3.6-1.125l0-3.6z M141.8118,33.625l0,12.51c0.765-0.585,3.015-2.385,6.435-2.385c6.03,0,9.225,4.365,9.225,11.925c0,8.46-4.41,13.365-13.05,13.365c-4.95,0-9.36-0.99-9.36-0.99l0-29.565l-3.375-0.9l0-3.6z M141.8118,51.175l0,12.105s1.035,0.36,3.33,0.36c3.915,0,5.355-2.97,5.355-7.515c0-4.5-1.26-6.975-4.41-6.975c-2.7,0-4.275,2.025-4.275,2.025z M163.07475,48.025l0-3.6l10.35-0.225l0,15.525c0,2.475,0.72,3.6,2.745,3.6c2.925,0,5.085-2.43,5.085-2.43l0-11.745l-3.6-1.125l0-3.6l10.35-0.225l0,19.575l3.6,0.9l0,3.51l-9.495,0.315l-0.45-3.15s-3.6,3.6-7.875,3.6c-4.5,0-7.11-3.015-7.11-8.055l0-11.745z M206.6577,44.2l0.405,3.105s3.24-3.555,6.255-3.555c2.475,0,4.185,0.81,4.185,0.81l-0.36,8.64l-4.05,0l-0.675-3.825c-2.61,0-4.86,2.52-4.86,2.52l0,11.88l4.5,1.125l0,3.6l-14.85,0l0-3.6l3.6-1.125l0-14.625l-3.6-1.125l0-3.6z M231.20565,64.45l6.66,0c5.715,0,9,2.475,9,6.975c0,4.95-3.96,8.55-12.6,8.55c-7.065,0-11.61-1.575-11.61-6.525c0-3.87,4.725-5.4,4.725-5.4s-2.7-0.405-2.7-2.97c0-1.305,1.8-4.23,2.34-5.085c-1.08-0.72-3.465-2.655-3.465-7.02c0-6.165,4.635-9.225,10.8-9.225c2.61,0,4.455,0.675,5.31,1.08l7.74-0.18l0,3.6l-3.69,0.63c0.09,0.405,0.765,1.62,0.765,3.555c0,6.525-4.59,9.225-10.8,9.225c-1.215,0-2.115-0.225-2.295-0.225z M234.13065,48.385c-2.7,0-3.825,1.44-3.825,4.275c0,2.7,1.035,4.5,3.6,4.5c2.835,0,3.825-1.485,3.825-4.5c0-2.835-1.125-4.275-3.6-4.275z M236.06565,69.4l-4.725,0s-2.16,0.99-2.16,2.925c0,2.25,1.935,2.7,5.625,2.7c4.05,0,5.76-0.9,5.76-3.06c0-2.025-1.485-2.565-4.5-2.565z M262.6836,33.625l0,13.185c1.305-1.08,4.23-3.06,7.56-3.06c4.59,0,7.065,3.06,7.065,8.1l0,11.925l3.15,1.125l0,3.6l-12.24,0l0-3.6l2.34-1.08l0-10.89c0-2.25-0.9-3.6-2.97-3.6c-2.52,0-4.905,2.385-4.905,2.385l0,12.06l2.385,1.125l0,3.6l-12.735,0l0-3.6l3.6-1.125l0-25.29l-3.6-0.9l0-3.6z"/><path fill="#c74b32" d="M315.2945,42.175l0,14.175c0,5.175,1.485,7.2,5.895,7.2c4.77,0,5.805-2.565,5.805-7.875l0-13.5l-3.51-1.35l0-3.825l13.86-0.225l0,4.05l-3.375,1.35l0,13.5c0,8.685-3.33,13.365-13.005,13.365c-9.045,0-12.645-4.005-12.645-12.69l0-14.175l-3.33-1.35l0-3.825l13.815-0.225l0,4.05z M343.62245,68.5l0-3.825l3.375-1.35l0-21.24l-3.375-1.35l0-3.735l13.725-0.225l0,3.96l-3.375,1.35l0,7.74l3.06,0l7.515-12.825l8.325-0.225l0,3.96l-4.275,1.26l-5.895,9.81l8.37,11.52l3.375,1.35l0,3.825l-13.725,0l0-3.825l2.7-1.35l-6.165-8.55l-3.285,0l0,8.55l3.375,1.35l0,3.825l-13.725,0z"/></svg>
