<?xml version="1.0"?>
<svg version="1.1" xmlns="http://www.w3.org/2000/svg" width="400" height="83" style=""><path fill="#1c40d4" d="M34.08,48.7l0,4.4l-8.08,0l0,7.6l7.16,0l0.92-3.28l3.6,0l0,8.08l-20.88,0l0-3.4l3-1.2l0-18.8l-3-1.2l0-3.4l9.2-0.2l11.2,0l0,7.72l-3.6,0l-1-2.92l-6.6,0l0,6.6l8.08,0z M58.8604,65.5l-0.36-2.12c-0.56,0.56-2.6,2.52-6.04,2.52c-5.6,0-8.2-4.08-8.2-10.68c0-7.52,3.6-11.72,10.92-11.72c0.96,0,2.12,0.2,3,0.4l0-5.08l-3.2-0.8l0-3.2l9.2-0.32l0,26.72l3.2,0.8l0,3.2z M58.1804,58.82l0-9.92c-0.76-0.36-1.96-0.6-3.12-0.6c-3.4,0-4.6,2.6-4.6,6.6c0,4.04,1.12,6.2,3.84,6.2c2.56,0,3.88-2.28,3.88-2.28z M74.8408,37.3c0-2.28,1.64-3.6,3.44-3.6c2.08,0,3.36,1.08,3.36,3.6c0,2.36-1.72,3.64-3.36,3.64c-2.16,0-3.44-1.28-3.44-3.64z M81.5608,61.3l2.8,1l0,3.2l-12,0l0-3.2l3.2-1l0-13l-3.2-1l0-3.2l9.2-0.2l0,17.4z M98.2212,43.9l0.28,2.76s3.8-3.08,7.36-3.08c3.88,0,6.08,2.76,6.08,7.12l0,10.6l2.8,1l0,3.2l-11,0l0-3.2l2.2-1l0-9.52c0-1.84-1.04-3.2-2.72-3.2c-2.48,0-4.28,2.28-4.28,2.28l0,10.44l2.2,1l0,3.2l-11.4,0l0-3.2l3.2-1l0-13l-3.2-1l0-3.2z M127.7216,34.5l0,11.12c0.68-0.52,2.68-2.12,5.72-2.12c5.36,0,8.2,3.88,8.2,10.6c0,7.52-3.92,11.88-11.6,11.88c-4.4,0-8.32-0.88-8.32-0.88l0-26.28l-3-0.8l0-3.2z M127.7216,50.1l0,10.76s0.92,0.32,2.96,0.32c3.48,0,4.76-2.64,4.76-6.68c0-4-1.12-6.2-3.92-6.2c-2.4,0-3.8,1.8-3.8,1.8z M146.622,47.3l0-3.2l9.2-0.2l0,13.8c0,2.2,0.64,3.2,2.44,3.2c2.6,0,4.52-2.16,4.52-2.16l0-10.44l-3.2-1l0-3.2l9.2-0.2l0,17.4l3.2,0.8l0,3.12l-8.44,0.28l-0.4-2.8s-3.2,3.2-7,3.2c-4,0-6.32-2.68-6.32-7.16l0-10.44z M185.3624,43.9l0.36,2.76s2.88-3.16,5.56-3.16c2.2,0,3.72,0.72,3.72,0.72l-0.32,7.68l-3.6,0l-0.6-3.4c-2.32,0-4.32,2.24-4.32,2.24l0,10.56l4,1l0,3.2l-13.2,0l0-3.2l3.2-1l0-13l-3.2-1l0-3.2z M207.1828,61.9l5.92,0c5.08,0,8,2.2,8,6.2c0,4.4-3.52,7.6-11.2,7.6c-6.28,0-10.32-1.4-10.32-5.8c0-3.44,4.2-4.8,4.2-4.8s-2.4-0.36-2.4-2.64c0-1.16,1.6-3.76,2.08-4.52c-0.96-0.64-3.08-2.36-3.08-6.24c0-5.48,4.12-8.2,9.6-8.2c2.32,0,3.96,0.6,4.72,0.96l6.88-0.16l0,3.2l-3.28,0.56c0.08,0.36,0.68,1.44,0.68,3.16c0,5.8-4.08,8.2-9.6,8.2c-1.08,0-1.88-0.2-2.04-0.2z M209.7828,47.62c-2.4,0-3.4,1.28-3.4,3.8c0,2.4,0.92,4,3.2,4c2.52,0,3.4-1.32,3.4-4c0-2.52-1-3.8-3.2-3.8z M211.5028,66.3l-4.2,0s-1.92,0.88-1.92,2.6c0,2,1.72,2.4,5,2.4c3.6,0,5.12-0.8,5.12-2.72c0-1.8-1.32-2.28-4-2.28z M235.1632,34.5l0,11.72c1.16-0.96,3.76-2.72,6.72-2.72c4.08,0,6.28,2.72,6.28,7.2l0,10.6l2.8,1l0,3.2l-10.88,0l0-3.2l2.08-0.96l0-9.68c0-2-0.8-3.2-2.64-3.2c-2.24,0-4.36,2.12-4.36,2.12l0,10.72l2.12,1l0,3.2l-11.32,0l0-3.2l3.2-1l0-22.48l-3.2-0.8l0-3.2z"/><path fill="#e61220" d="M270.3036,42.1l0,12.6c0,4.6,1.32,6.4,5.24,6.4c4.24,0,5.16-2.28,5.16-7l0-12l-3.12-1.2l0-3.4l12.32-0.2l0,3.6l-3,1.2l0,12c0,7.72-2.96,11.88-11.56,11.88c-8.04,0-11.24-3.56-11.24-11.28l0-12.6l-2.96-1.2l0-3.4l12.28-0.2l0,3.6z M295.484,65.5l0-3.4l3-1.2l0-18.88l-3-1.2l0-3.32l12.2-0.2l0,3.52l-3,1.2l0,6.88l2.72,0l6.68-11.4l7.4-0.2l0,3.52l-3.8,1.12l-5.24,8.72l7.44,10.24l3,1.2l0,3.4l-12.2,0l0-3.4l2.4-1.2l-5.48-7.6l-2.92,0l0,7.6l3,1.2l0,3.4l-12.2,0z"/></svg>
